HIERARCHY
ROOT Hips
{
	OFFSET	0.00	0.00	0.00
	CHANNELS 6 Xposition Yposition Zposition Zrotation Xrotation Yrotation
	JOINT Spine
	{
		OFFSET	 0.00	0.01	 0.00
		CHANNELS 3 Zrotation Xrotation Yrotation
		JOINT Spine1
		{
			OFFSET	 0.00	 2.45913012437421	 0.00
			CHANNELS 3 Zrotation Xrotation Yrotation
            JOINT Neck
            {
                OFFSET	 0.00	 2.48462964506057	 0.00
                CHANNELS 3 Zrotation Xrotation Yrotation
                JOINT Head
                {
                    OFFSET	 0.00	 0.927524780924562	 0.00
                    CHANNELS 3 Zrotation Xrotation Yrotation
                    End Site 
                    {
                        OFFSET	 0.00	 1.14999962169752	 0.00
                    }
                }
            }
			JOINT LeftShoulder
			{
				OFFSET	 0.00	 2.48462964506057	 0.00
				CHANNELS 3 Zrotation Xrotation Yrotation
				JOINT LeftUpArm
				{
					OFFSET	 0.00	 1.24881979654096	 0.00
					CHANNELS 3 Zrotation Xrotation Yrotation
					JOINT LeftForeArm
					{
						OFFSET	 0.00	2.59758046908119	 0.00
						CHANNELS 3 Zrotation Xrotation Yrotation
						JOINT LeftHand
						{
							OFFSET	 0.00	2.45542024364365	 0.00
							CHANNELS 3 Zrotation Xrotation Yrotation
							JOINT LeftHandThumb 
							{
								OFFSET	 0.00	0.00	 0.00
								CHANNELS 3 Zrotation Xrotation Yrotation
								End Site
								{
									OFFSET	 0.00	0.00	1.00000003353624
								}
							}
							JOINT L_Wrist_End 
							{
								OFFSET	 0.00	0.99999967115358	 0.00
								CHANNELS 3 Zrotation Xrotation Yrotation
								End Site 
								{
									OFFSET	 0.00	 0.00	 0.00
								}
							}
						}
					}
				}
			}
			JOINT RightShoulder
			{
				OFFSET	 0.00	 2.48462964506057	 0.00
				CHANNELS 3 Zrotation Xrotation Yrotation
				JOINT RightUpArm
				{
					OFFSET	 0.00	 1.24881979654096	 0.00
					CHANNELS 3 Zrotation Xrotation Yrotation
					JOINT RightForeArm
					{
						OFFSET	 0.00	2.59758046908119	 0.00
						CHANNELS 3 Zrotation Xrotation Yrotation
						JOINT RightHand
						{
							OFFSET	 0.00	2.45542024364365	 0.00
							CHANNELS 3 Zrotation Xrotation Yrotation
							JOINT RightHandThumb 
							{
								OFFSET	 0.00	0.00	 0.00
								CHANNELS 3 Zrotation Xrotation Yrotation
								End Site
								{
									OFFSET	 0.00	0.00	1.00000003353624
								}
							}
							JOINT R_Wrist_End 
							{
								OFFSET	 0.00	0.99999967115358	 0.00
								CHANNELS 3 Zrotation Xrotation Yrotation
								End Site 
								{
									OFFSET	 0.00	 0.00	 0.00
								}
							}
						}
					}
				}
			}
		}
	}
	JOINT LeftUpLeg
	{
		OFFSET	 1.2719394002717	 0.00	 0.00
		CHANNELS 3 Zrotation Xrotation Yrotation
		JOINT LeftLowLeg
		{
			OFFSET	 0.00	-4.3429100912261	 0.00
			CHANNELS 3 Zrotation Xrotation Yrotation
			JOINT LeftFoot
			{
				OFFSET	 0.00	-4.48767017425826	 0.00
				CHANNELS 3 Zrotation Xrotation Yrotation
				JOINT LeftToeBase
                {
                    OFFSET	 0.00	0.00	 1.51507020887566
                    CHANNELS 3 Zrotation Xrotation Yrotation
                    End Site 
                    {
                        OFFSET	 0.00	0.00	 0.75000010571191
                    }
                }
			}
		}
	}
	JOINT RightUpLeg
	{
		OFFSET	 -1.2719393604653	 0.00	 0.00
		CHANNELS 3 Zrotation Xrotation Yrotation
		JOINT RightLowLeg
		{
			OFFSET	 0.00	-4.3429100912261	 0.00
			CHANNELS 3 Zrotation Xrotation Yrotation
			JOINT RightFoot
			{
				OFFSET	 0.00	-4.48767017425826	 0.00
				CHANNELS 3 Zrotation Xrotation Yrotation
				JOINT RightToeBase
                {
                    OFFSET	 0.00	0.00	 1.51507020887566
                    CHANNELS 3 Zrotation Xrotation Yrotation
                    End Site 
                    {
                        OFFSET	 0.00	0.00	 0.749999965609858
                    }
                }   
			}
		}
	}
}
MOTION 
Frames:	15 
Frame Time: 0.02 
  5.69719970703125 7.857239990234375 9.298049926757812 151.117 84.2366 515.914 -3.35829 -8.34644 4.29088 8.8448 -7.31152 1.22497 -33.1903 62.5104 727.776 94.5776 -67.1091 82.047 -118.869 -11.9863 -1.58654 -4.74423 -4.11711 -13.3897 0.0 35.3629 0.0 -15.2533 -5.49675 -7.44778 0.0 0.0 0.0 0.0 0.0 0.0 110.592896 -1.47222 -8.65212 1.65284 8.85141 23.6611 0.0 38.1986 0.0 -0.0302443 3.56433 55.067 0.0 0.0 0.0 0.0 0.0 0.0 -3.03951 1.42089 0.0973687 0.0 8.39556 0.0 -10.1066 -2.1716003 2.57682 0.0 -28.0879 0.0 -6.68724 -21.4385 -20.452 0.0 19.5415 0.0 15.6175 19.278591 3.37071 0.0 -35.6388 0.0 
  5.7031097412109375 7.84823974609375 9.29781005859375 151.976 84.3043 515.482 -3.47504 -8.63151 4.38251 8.88511 -7.12565 1.32635 -32.0958 63.0788 726.409 94.4564 -66.9509 81.6889 -118.5732 -11.9829 -2.12131 -3.9499 -3.83411 -16.1102 0.0 31.7402 0.0 -14.5414 -6.26061 -7.36566 0.0 0.0 0.0 0.0 0.0 0.0 110.3975 -1.01722 -8.16115 1.1735 9.82643 27.8322 0.0 35.2137 0.0 -0.347547 2.05181 49.7791 0.0 0.0 0.0 0.0 0.0 0.0 -3.03461 1.47429 -0.035559 0.0 8.41671 0.0 -10.1091 -2.1305008 2.36486 0.0 -27.9622 0.0 -6.84869 -21.2523 -22.6291 0.0 19.462 0.0 15.594 19.19828 2.8006 0.0 -36.0364 0.0 
  5.710050048828125 7.8382501220703125 9.297919921875 152.651 84.3527 515.255 -3.50506 -8.90706 4.43086 8.77438 -6.97414 1.36934 -30.9942 63.6382 725.045 94.4138 -66.7653 81.5221 -118.3076 -12.0806 -2.72503 -3.23644 -3.64916 -19.0128 0.0 28.6801 0.0 -13.1695 -7.13 -6.6726 0.0 0.0 0.0 0.0 0.0 0.0 110.3797 -0.516515 -8.03454 0.585119 10.6038 32.4353 0.0 32.5488 0.0 -0.359434 0.819043 45.2433 0.0 0.0 0.0 0.0 0.0 0.0 -3.02307 1.49089 0.0568199 0.0 8.44894 0.0 -10.0815 -2.0165005 1.89051 0.0 -27.903599 0.0 -7.0286 -21.0989 -24.6797 0.0 19.4357 0.0 15.3858 18.97443 2.19462 0.0 -35.786102 0.0 
  5.717529907226562 7.827579956054688 9.297960205078125 152.946 84.3793 515.39 -3.5222 -9.15853 4.49637 8.62947 -6.9341 1.43983 -30.1147 64.1996 723.946 94.2143 -66.6006 81.169 -118.109695 -12.2397 -3.25807 -2.5614 -3.48409 -22.087 0.0 26.1168 0.0 -11.4424 -7.93771 -5.96253 0.0 0.0 0.0 0.0 0.0 0.0 110.263 -0.150552 -7.60725 0.260934 11.3472 36.647 0.0 30.2044 0.0 -0.344208 -0.354465 41.5752 0.0 0.0 0.0 0.0 0.0 0.0 -3.05319 1.50822 -0.0503534 0.0 8.4193 0.0 -10.0847 -1.9023991 1.5996 0.0 -27.8766 0.0 -7.21899 -20.9742 -26.5111 0.0 19.3665 0.0 15.3586 18.78605 1.62987 0.0 -35.7154 0.0 
  5.725750122070313 7.8174200439453125 9.297269897460938 152.743 84.395 515.992 -3.50737 -9.34656 4.58301 8.35307 -7.05443 1.54338 -29.2932 64.8193 722.939 94.0362 -66.3828 80.8699 -117.8897 -12.4453 -3.73287 -1.95762 -3.37178 -25.4652 0.0 24.0299 0.0 -9.57655 -8.60917 -5.18268 0.0 0.0 0.0 0.0 0.0 0.0 110.3476 0.210079 -7.51944 -0.221133 11.7775 40.7187 0.0 28.27 0.0 -0.646013 -1.59737 38.6002 0.0 0.0 0.0 0.0 0.0 0.0 -3.11562 1.49526 -0.0469188 0.0 8.38554 0.0 -10.0624 -1.7639999 1.22864 0.0 -27.859299 0.0 -7.40494 -20.9216 -27.9457 0.0 19.3317 0.0 15.6781 18.4703 0.937849 0.0 -35.9668 0.0 
  5.734569702148438 7.8063201904296875 9.296270141601562 151.851 84.3607 517.205 -3.40503 -9.58841 4.73017 7.88665 -7.18923 1.69205 -28.6057 65.4302 722.155 94.0484 -66.1018 80.6583 -117.6166 -12.7273 -4.31416 -1.49732 -3.15486 -28.8527 0.0 22.3224 0.0 -7.10212 -9.21363 -4.77369 0.0 0.0 0.0 0.0 0.0 0.0 110.4863 0.559218 -7.2186 -0.572182 11.9901 44.27 0.0 26.6034 0.0 -1.16352 -2.86031 35.5008 0.0 0.0 0.0 0.0 0.0 0.0 -3.24112 1.46021 -0.118774 0.0 8.27051 0.0 -9.9777 -1.6103992 1.03695 0.0 -27.8913 0.0 -7.61637 -20.978 -29.1519 0.0 19.3305 0.0 15.9885 18.10792 0.137834 0.0 -36.4591 0.0 
  5.740549926757812 7.795250244140625 9.294459838867187 150.752 84.3053 518.573 -3.30417 -9.84298 4.92131 7.38979 -7.37477 1.89112 -28.0181 66.0549 721.503 94.185 -65.792 80.5862 -117.382095 -13.0262 -5.06251 -1.0313 -2.8378 -32.7211 0.0 20.7343 0.0 -5.21738 -9.57482 -5.42014 0.0 0.0 0.0 0.0 0.0 0.0 110.6903 0.714647 -6.98295 -0.950942 12.2541 47.7763 0.0 25.0623 0.0 -1.88682 -4.277 32.299 0.0 0.0 0.0 0.0 0.0 0.0 -3.35896 1.44075 -0.0229101 0.0 8.11363 0.0 -9.94536 -1.4484005 0.687755 0.0 -27.8995 0.0 -7.79161 -21.08 -30.0849 0.0 19.3379 0.0 16.1687 17.71043 -0.653804 0.0 -36.5742 0.0 
  5.747340087890625 7.782410278320312 9.292630004882813 149.713 84.2456 519.901 -3.09987 -10.1217 5.13499 6.73422 -7.51501 2.08336 -27.2534 66.7776 720.646 94.6391 -65.3847 80.997 -117.1264 -13.3138 -6.01291 -0.646307 -2.4683 -36.3787 0.0 19.3685 0.0 -3.12456 -9.83681 -6.87714 0.0 0.0 0.0 0.0 0.0 0.0 110.9915 0.946141 -6.72387 -1.27416 12.1682 50.7367 0.0 23.7581 0.0 -2.92941 -5.90489 30.1661 0.0 0.0 0.0 0.0 0.0 0.0 -3.49689 1.43692 -0.118644 0.0 7.93276 0.0 -9.89909 -1.3111 0.519466 0.0 -27.8801 0.0 -7.99723 -21.1493 -30.8562 0.0 19.3529 0.0 16.0655 17.39344 -1.21692 0.0 -36.706398 0.0 
  5.75344970703125 7.76968994140625 9.290189819335938 148.79 84.1923 521.135 -2.91311 -10.4131 5.38741 6.11525 -7.58397 2.31256 -26.3627 67.3965 719.679 95.0655 -64.9805 81.4026 -116.8724 -13.4638 -6.73722 -0.330721 -2.1541 -39.8619 0.0 18.1768 0.0 -0.941065 -10.2493 -9.37407 0.0 0.0 0.0 0.0 0.0 0.0 111.313995 0.940458 -6.71643 -1.68066 12.2135 54.0279 0.0 22.4659 0.0 -4.21947 -7.53409 28.2239 0.0 0.0 0.0 0.0 0.0 0.0 -3.63454 1.43056 -0.296249 0.0 7.78533 0.0 -9.8514 -1.2148991 0.419442 0.0 -27.877201 0.0 -8.22002 -21.1689 -31.6354 0.0 19.3527 0.0 15.9085 17.09528 -1.60831 0.0 -36.8927 0.0 
  5.758920288085937 7.754569702148437 9.288159790039062 148.312 84.1574 521.965 -2.67896 -10.7459 5.67367 5.5069 -7.52751 2.55293 -25.3553 67.9789 718.577 95.4183 -64.5889 81.8035 -116.6724 -13.4365 -7.46923 -0.00564473 -1.96457 -42.8913 0.0 17.0913 0.0 1.42821 -10.4649 -11.6461 0.0 0.0 0.0 0.0 0.0 0.0 111.617905 0.84486 -6.32362 -1.88701 12.0612 56.5491 0.0 21.4976 0.0 -5.50228 -8.82503 26.8394 0.0 0.0 0.0 0.0 0.0 0.0 -3.73805 1.45896 -0.392309 0.0 7.6553 0.0 -9.79531 -1.1061993 0.209314 0.0 -27.8741 0.0 -8.46026 -21.0767 -32.4206 0.0 19.3133 0.0 15.5626 16.95351 -1.71583 0.0 -37.039497 0.0 
  5.764039916992187 7.743729858398438 9.2856298828125 148.607 84.133 522.122 -2.56491 -10.9951 5.86289 5.1897 -7.47306 2.71988 -24.9179 68.3563 718.113 95.6274 -64.3475 82.0432 -116.5771 -13.3622 -7.98221 0.276139 -1.94399 -45.3402 0.0 16.1864 0.0 3.87772 -10.7651 -14.011 0.0 0.0 0.0 0.0 0.0 0.0 111.7712 0.67873 -5.99368 -1.9326 11.9033 58.9466 0.0 20.8325 0.0 -6.7037 -9.55579 24.8946 0.0 0.0 0.0 0.0 0.0 0.0 -3.75772 1.57983 -0.370334 0.0 7.35727 0.0 -9.78478 -0.9801998 -0.112883 0.0 -27.9883 0.0 -8.65161 -20.9564 -33.0162 0.0 19.3238 0.0 15.3747 16.78783 -1.77496 0.0 -36.855103 0.0 
  5.76697021484375 7.723309936523438 9.284249877929687 148.028 84.0216 522.951 -2.35923 -11.6167 6.15694 4.88517 -7.07759 2.94681 -24.5465 68.6902 717.656 95.9432 -64.1837 82.4727 -116.5819 -13.2062 -8.32377 0.554447 -2.03633 -47.6666 0.0 15.3687 0.0 5.9564 -11.0561 -15.0336 0.0 0.0 0.0 0.0 0.0 0.0 111.9712 0.450047 -5.8511 -2.04686 11.6751 60.9986 0.0 20.432 0.0 -7.55092 -9.83606 23.6221 0.0 0.0 0.0 0.0 0.0 0.0 -3.86929 1.45086 -0.683521 0.0 7.49159 0.0 -9.70538 -1.0156994 -0.101332 0.0 -27.7971 0.0 -8.89828 -20.9643 -33.2858 0.0 19.3885 0.0 14.8944 16.786911 -1.77251 0.0 -36.742798 0.0 
  5.77280029296875 7.713740234375 9.283289794921876 148.19 84.0485 523.393 -2.44601 -11.8427 6.1725 4.93109 -6.91344 2.97999 -24.9714 68.9011 718.058 96.217 -64.19 82.7479 -116.6671 -13.0317 -8.64722 0.67986 -2.34569 -49.4483 0.0 14.731 0.0 7.51403 -11.1093 -16.5302 0.0 0.0 0.0 0.0 0.0 0.0 112.0523 0.24101 -5.63254 -2.01494 11.4116 62.2365 0.0 20.2956 0.0 -8.24068 -9.98771 23.4028 0.0 0.0 0.0 0.0 0.0 0.0 -3.88822 1.41262 -0.83523 0.0 7.56341 0.0 -9.67877 -0.9258003 -0.511652 0.0 -27.8482 0.0 -9.14659 -20.822 -33.5126 0.0 19.4658 0.0 14.6987 16.70154 -1.94732 0.0 -36.5859 0.0 
  5.777210083007812 7.703909912109375 9.282360229492188 148.381 84.0706 523.764 -2.65927 -12.1114 6.12406 5.28308 -6.71638 2.9797 -26.1176 68.9366 719.251 96.2061 -64.3812 82.6744 -116.8722 -12.9529 -8.9203 0.734198 -2.63704 -50.8134 0.0 14.0784 0.0 8.8052 -11.0553 -16.9805 0.0 0.0 0.0 0.0 0.0 0.0 111.9509 0.0676347 -5.25607 -1.82894 11.1234 62.5266 0.0 20.2977 0.0 -8.63481 -9.97876 24.0448 0.0 0.0 0.0 0.0 0.0 0.0 -3.91248 1.40019 -1.10352 0.0 7.60299 0.0 -9.64641 -0.8687 -0.753414 0.0 -27.825401 0.0 -9.36523 -20.6842 -33.6396 0.0 19.5341 0.0 14.6118 16.64137 -2.09799 0.0 -36.8026 0.0 
  5.782540283203125 7.69447021484375 9.2810498046875 148.591 84.0947 524.013 -2.85597 -12.3076 6.07783 5.65478 -6.62111 2.9832 -27.5323 69.0134 720.734 96.0783 -64.5732 82.5984 -117.044205 -12.9712 -8.88245 0.718574 -2.94954 -51.5725 0.0 13.5186 0.0 9.11224 -10.9901 -23.2773 0.0 0.0 0.0 0.0 0.0 0.0 111.861 0.0287998 -5.3198 -1.73577 10.6714 62.6363 0.0 20.2667 0.0 -8.67539 -9.81953 24.6874 0.0 0.0 0.0 0.0 0.0 0.0 -3.94495 1.40512 -1.28327 0.0 7.61678 0.0 -9.58347 -0.8255997 -0.954592 0.0 -27.8533 0.0 -9.56784 -20.5773 -33.7704 0.0 19.6606 0.0 14.4134 16.503 -2.19805 0.0 -36.7141 0.0 
